<?xml version="1.0" encoding="utf-8"?>
<!-- Generator: Adobe Illustrator 18.0.0, SVG Export Plug-In . SVG Version: 6.00 Build 0)  -->
<!DOCTYPE svg PUBLIC "-//W3C//DTD SVG 1.1//EN" "http://www.w3.org/Graphics/SVG/1.1/DTD/svg11.dtd">
<svg version="1.1" id="Layer_1" xmlns="http://www.w3.org/2000/svg" xmlns:xlink="http://www.w3.org/1999/xlink" x="0px" y="0px"
	 viewBox="0 0 149.3 82.3" enable-background="new 0 0 149.3 82.3" xml:space="preserve">
<path fill="#6D6E71" d="M54.1,66v-4.5H49V66h-2.3V55.2H49v4.2h5.1v-4.2h2.3V66H54.1z M65.6,66v-4.4l4.1-6.4h-2.6l-2.7,4.3l-2.7-4.3
	h-2.6l4.2,6.4V66H65.6z M81.2,66l-4.2-10.8h-2.9L70,66h2.6l0.7-1.8H78l0.7,1.8H81.2z M77.3,62.1H74l1.7-4.6L77.3,62.1z M87.8,66
	v-8.8H91v-2h-8.6v2h3.2V66H87.8z M99.7,66v-8.8h3.1v-2h-8.6v2h3.2V66H99.7z M8.7,82.1L6.3,78c0.3-0.1,0.6-0.2,0.9-0.3
	s0.5-0.4,0.8-0.6c0.2-0.3,0.4-0.6,0.5-0.9c0.1-0.4,0.2-0.8,0.2-1.3c0-0.5-0.1-1-0.3-1.4C8.3,73,8,72.6,7.7,72.3
	C7.4,72,7,71.8,6.6,71.6s-1-0.3-1.5-0.3H0v10.8h2.3v-3.8H4l2.1,3.8H8.7z M2.3,76.3v-2.9h2.4c0.5,0,0.8,0.1,1.2,0.4
	c0.3,0.3,0.5,0.6,0.5,1.1c0,0.5-0.2,0.8-0.5,1.1c-0.3,0.3-0.7,0.4-1.2,0.4H2.3z M19.2,82.1v-2h-5.3v-2.4H19v-2h-5.2v-2.3h5.3v-2
	h-7.6v10.8H19.2z M26.6,82.3c0.7,0,1.4-0.1,1.9-0.3c0.5-0.2,1-0.4,1.3-0.7c0.4-0.3,0.6-0.7,0.8-1.1c0.2-0.4,0.3-0.9,0.3-1.4
	c0-0.7-0.2-1.2-0.5-1.6c-0.3-0.4-0.7-0.7-1.1-1c-0.5-0.2-1-0.4-1.5-0.6c-0.5-0.1-1-0.3-1.5-0.4s-0.8-0.2-1.1-0.4
	c-0.3-0.2-0.5-0.4-0.5-0.7c0-0.3,0.1-0.6,0.4-0.8c0.3-0.2,0.6-0.3,1.1-0.3c0.5,0,1.1,0.1,1.6,0.3c0.6,0.2,1,0.5,1.5,0.9l1.3-1.7
	c-1.1-1-2.5-1.5-4.2-1.5c-0.6,0-1.2,0.1-1.7,0.3c-0.5,0.2-0.9,0.4-1.3,0.7s-0.6,0.6-0.8,1c-0.2,0.4-0.3,0.8-0.3,1.3
	c0,0.7,0.2,1.2,0.5,1.6c0.3,0.4,0.7,0.7,1.1,1s1,0.4,1.5,0.5c0.5,0.1,1,0.3,1.5,0.4c0.5,0.1,0.8,0.3,1.1,0.4
	c0.3,0.2,0.5,0.4,0.5,0.7c0,0.3-0.2,0.6-0.5,0.8c-0.3,0.2-0.8,0.4-1.4,0.4c-0.7,0-1.4-0.1-2-0.4c-0.6-0.3-1.1-0.6-1.4-1L22,80.6
	c0.5,0.5,1.1,0.9,1.9,1.3C24.6,82.2,25.5,82.3,26.6,82.3 M34.2,82.1h2.3V71.3h-2.3V82.1z M44.7,82.1c0.8,0,1.6-0.1,2.3-0.4
	c0.7-0.3,1.3-0.6,1.8-1.1c0.5-0.5,0.9-1,1.2-1.7c0.3-0.7,0.4-1.4,0.4-2.2c0-0.8-0.1-1.5-0.4-2.2c-0.3-0.7-0.7-1.2-1.2-1.7
	c-0.5-0.5-1.1-0.8-1.8-1.1c-0.7-0.3-1.5-0.4-2.3-0.4h-4.3v10.8H44.7z M42.7,80.1v-6.7h2c0.5,0,1,0.1,1.5,0.3
	c0.4,0.2,0.8,0.4,1.1,0.7c0.3,0.3,0.5,0.7,0.6,1.1c0.1,0.4,0.2,0.9,0.2,1.3c0,0.5-0.1,0.9-0.2,1.3c-0.2,0.4-0.4,0.8-0.7,1.1
	s-0.6,0.5-1.1,0.7c-0.4,0.2-0.9,0.3-1.4,0.3H42.7z M60.8,82.1v-2h-5.3v-2.4h5.2v-2h-5.2v-2.3h5.3v-2h-7.6v10.8H60.8z M74,82.1V71.3
	h-2.3v6.8l-5-6.8h-2.4v10.8h2.3v-7l5.1,7H74z M82.5,82.3c0.6,0,1.1-0.1,1.6-0.2c0.5-0.2,0.9-0.3,1.3-0.6c0.4-0.2,0.7-0.5,1-0.8
	c0.3-0.3,0.5-0.6,0.7-1l-2-1c-0.2,0.5-0.6,0.8-1,1.1c-0.5,0.3-1,0.4-1.5,0.4c-0.5,0-0.9-0.1-1.4-0.3s-0.8-0.4-1.1-0.7
	c-0.3-0.3-0.5-0.7-0.7-1.1c-0.2-0.4-0.3-0.9-0.3-1.4c0-0.5,0.1-1,0.3-1.4c0.2-0.4,0.4-0.8,0.7-1.1c0.3-0.3,0.7-0.6,1.1-0.7
	s0.9-0.3,1.4-0.3c0.6,0,1.1,0.2,1.5,0.5c0.5,0.3,0.8,0.7,1,1.1l2-1c-0.2-0.3-0.4-0.7-0.7-1c-0.3-0.3-0.6-0.6-1-0.8
	c-0.4-0.2-0.8-0.4-1.3-0.6c-0.5-0.2-1-0.2-1.6-0.2c-0.8,0-1.6,0.1-2.3,0.4c-0.7,0.3-1.3,0.6-1.8,1.1c-0.5,0.5-0.9,1.1-1.2,1.8
	c-0.3,0.7-0.4,1.4-0.4,2.3c0,0.8,0.1,1.6,0.4,2.3c0.3,0.7,0.7,1.3,1.2,1.8c0.5,0.5,1.1,0.9,1.8,1.1C80.9,82.2,81.7,82.3,82.5,82.3
	 M97.4,82.1v-2h-5.3v-2.4h5.2v-2h-5.2v-2.3h5.3v-2h-7.6v10.8H97.4z M111,82.3c0.6,0,1.1-0.1,1.6-0.2c0.5-0.2,0.9-0.3,1.3-0.6
	c0.4-0.2,0.7-0.5,1-0.8c0.3-0.3,0.5-0.6,0.7-1l-2-1c-0.2,0.5-0.6,0.8-1,1.1c-0.5,0.3-1,0.4-1.5,0.4c-0.5,0-0.9-0.1-1.4-0.3
	c-0.4-0.2-0.8-0.4-1.1-0.7c-0.3-0.3-0.5-0.7-0.7-1.1c-0.2-0.4-0.3-0.9-0.3-1.4c0-0.5,0.1-1,0.3-1.4c0.2-0.4,0.4-0.8,0.7-1.1
	c0.3-0.3,0.7-0.6,1.1-0.7c0.4-0.2,0.9-0.3,1.4-0.3c0.6,0,1.1,0.2,1.5,0.5c0.5,0.3,0.8,0.7,1,1.1l2-1c-0.2-0.3-0.4-0.7-0.7-1
	c-0.3-0.3-0.6-0.6-1-0.8c-0.4-0.2-0.8-0.4-1.3-0.6c-0.5-0.2-1-0.2-1.6-0.2c-0.8,0-1.6,0.1-2.3,0.4c-0.7,0.3-1.3,0.6-1.8,1.1
	c-0.5,0.5-0.9,1.1-1.2,1.8c-0.3,0.7-0.4,1.4-0.4,2.3c0,0.8,0.1,1.6,0.4,2.3c0.3,0.7,0.7,1.3,1.2,1.8c0.5,0.5,1.1,0.9,1.8,1.1
	C109.4,82.2,110.2,82.3,111,82.3 M125.2,82.1v-2h-4.6v-8.8h-2.3v10.8H125.2z M132.2,82.3c0.8,0,1.5-0.1,2.1-0.3
	c0.6-0.2,1.1-0.5,1.5-0.9c0.4-0.4,0.7-0.9,0.9-1.4c0.2-0.6,0.3-1.2,0.3-1.8v-6.5h-2.4v6.4c0,0.8-0.2,1.4-0.6,1.8s-1.1,0.7-1.9,0.7
	c-0.8,0-1.5-0.2-1.9-0.7c-0.4-0.5-0.6-1.1-0.6-1.8v-6.4h-2.3v6.5c0,0.7,0.1,1.3,0.3,1.8c0.2,0.5,0.5,1,0.9,1.4
	c0.4,0.4,0.9,0.7,1.5,0.9C130.6,82.2,131.3,82.3,132.2,82.3 M146.1,82.1c0.5,0,1-0.1,1.4-0.2c0.4-0.2,0.7-0.4,1-0.6
	c0.3-0.3,0.5-0.6,0.6-0.9c0.1-0.3,0.2-0.7,0.2-1.1c0-0.3-0.1-0.7-0.2-1c-0.1-0.3-0.3-0.6-0.4-0.8c-0.2-0.2-0.4-0.4-0.7-0.6
	c-0.2-0.2-0.5-0.3-0.8-0.3c0.3-0.1,0.5-0.1,0.7-0.3c0.2-0.1,0.4-0.3,0.6-0.5c0.2-0.2,0.3-0.5,0.4-0.7c0.1-0.3,0.1-0.6,0.1-0.9
	c0-0.4-0.1-0.7-0.2-1c-0.1-0.3-0.3-0.6-0.6-0.9c-0.3-0.3-0.6-0.5-1-0.6c-0.4-0.1-0.8-0.2-1.4-0.2h-5.7v10.8H146.1z M142.6,75.7v-2.3
	h2.9c0.4,0,0.7,0.1,0.9,0.3c0.2,0.2,0.3,0.5,0.3,0.8s-0.1,0.6-0.3,0.8c-0.2,0.2-0.5,0.3-0.9,0.3H142.6z M142.6,80.1v-2.5h3
	c0.5,0,0.8,0.1,1,0.4c0.2,0.2,0.4,0.5,0.4,0.9c0,0.4-0.1,0.7-0.4,0.9c-0.2,0.2-0.6,0.3-1,0.3H142.6z"/>
<path fill="#F47B29" d="M116,41.8v-1.2h-0.4v-0.3h1.2v0.3h-0.4v1.2H116z M118.7,41.8v-1.5h-0.4l-0.4,0.9l-0.4-0.9h-0.4v1.5h0.3v-1
	l0.4,1h0.1l0.4-1v1H118.7z M54.4,21.2H41.8v-14h-3.6v34.5h3.6V24.5h12.6V21.2z M113.6,34.6l-0.2,0.2c-2.1,2.9-5.8,4.8-9.6,4.8
	c-7.9,0-13.7-6.1-13.7-14.5s5.8-14.5,13.7-14.5c3.8,0,7.5,1.8,9.6,4.8l0.2,0.2l2.9-1.9l-0.2-0.3c-3.2-4-7.4-6.1-12.5-6.1
	c-10,0-17.3,7.5-17.3,17.7c0,10.3,7.3,17.7,17.3,17.7c5.1,0,9.1-2,12.5-6.1l0.2-0.3L113.6,34.6z M74.7,24.2
	c6.2-0.2,11.5-4.4,11.5-12C86.3,4.6,80.8,0,73.6,0H58v41.8h3.6V24.5v-3.3V6.2V3.3h11.7c5.5,0,9.2,3.7,9.2,9c0,5.3-3.7,9-9.2,9h-8.1
	v3.3h5.6l11.7,17.3h4.3L74.7,24.2z"/>
</svg>
